# xmcd
#
# Track frame offsets:
#	150
#	14402
#	30117
#	47232
#	62227
#	79875
#	94001
#	110992
#	130689
#	147151
#	164605
#	188073
#	208284
#	227368
#	241802
#	257181
#	274569
#	292386
#
# Disc length: 4079 seconds
#
# Revision: 1
# Processed by: cddbd v1.5.2PL0 Copyright (c) Steve Scherf et al.
# Submitted via: audiograbber 1.81.03
#
DISCID=080fed12
DTITLE=SFAKIANAKIS, APENANTI - TELOS DIHOS TELOS
DYEAR=1900
DGENRE=Acoustic
TTITLE0=APENANTI - TI SOU 'KANA KAI PINEIS
TTITLE1=APENANTI - MISOS
TTITLE2=APENANTI - TO PARELTHON THYMITHIKA
TTITLE3=APENANTI - NA EIHA TO KOURAGIO
TTITLE4=APENANTI - O PSEFTIS
TTITLE5=SFAKIANAKIS - OI SKIES
TTITLE6=SFAKIANAKIS - SYNTAGI
TTITLE7=SFAKIANAKIS - FOS MOU
TTITLE8=SFAKIANAKIS - KARNTASIS
TTITLE9=SFAKIANAKIS - TELOS DIHOS TELOS
TTITLE10=SFAKIANAKIS - METANIONO
TTITLE11=SFAKIANAKIS - DEN MPORO NA KATALAVO
TTITLE12=SFAKIANAKIS - THELO NA ZISO
TTITLE13=SFAKIANAKIS - TIPOTA
TTITLE14=SFAKIANAKIS - DELTIO KARDIAS
TTITLE15=SFAKIANAKIS - TO SOMA MOU AITOU FOLIA
TTITLE16=SFAKIANAKIS - GYRISE PISO
TTITLE17=SFAKIANAKIS - TO FINALE TIS KARDIAS
EXTD=
EXTT0=
EXTT1=
EXTT2=
EXTT3=
EXTT4=
EXTT5=
EXTT6=
EXTT7=
EXTT8=
EXTT9=
EXTT10=
EXTT11=
EXTT12=
EXTT13=
EXTT14=
EXTT15=
EXTT16=
EXTT17=
PLAYORDER=
